<!-- Official Google G Icon -->
<svg xmlns="http://www.w3.org/2000/svg" viewBox="0 0 18 18" width="48" height="48" aria-label="Google logo" role="img">
  <path fill="#4285F4" d="M17.64 9.2045c0-.6382-.0573-1.2527-.1636-1.8418H9v3.4814h4.8441a4.1375 4.1375 0 0 1-1.7973 2.7164v2.2591h2.9082c1.7018-1.5682 2.6845-3.8777 2.6845-6.6151z"/>
  <path fill="#34A853" d="M9 18c2.43 0 4.4673-.8064 5.9564-2.1805l-2.9082-2.2591c-.8064.5409-1.8364.8591-3.0482.8591-2.3441 0-4.3273-1.5827-5.0346-3.7091H0.9573v2.3182C2.4382 15.7864 5.4818 18 9 18z"/>
  <path fill="#FBBC05" d="M3.9655 10.7105A5.411 5.411 0 0 1 3.6827 9c0-.5918.1027-1.1636.2828-1.7105V4.9718H0.9573A9.0108 9.0108 0 0 0 0 9c0 1.455.3491 2.8327.9573 4.0287l3.0082-2.3182z"/>
  <path fill="#EA4335" d="M9 3.5627c1.3264 0 2.5137.4555 3.4491 1.3482l2.5828-2.5827C13.4637.9045 11.4264 0 9 0 5.4818 0 2.4382 2.2136.9573 5.0287l3.0082 2.3178C4.6727 5.1455 6.6555 3.5627 9 3.5627z"/>
</svg>  